# xmcd
#
# Track frame offsets:
#	150
#	24634
#	38026
#	61719
#	77844
#	95489
#	109714
#	124377
#	137500
#	151036
#	165767
#	185509
#	208575
#	224946
#
# Disc length: 3221 seconds
# Revision: 0
# Processed by: cddbd v1.5.2PL0 Copyright (c) Steve Scherf et al.
# Submitted via: dBpowerAMP V12.0
#
DISCID=b90c930e
DTITLE=The Persuasions - Knockin' On Bob's Door
DYEAR=2010
DGENRE=R&B
TTITLE0=Mr. Tambourine Man
TTITLE1=All Along The Watchtower
TTITLE2=Like A Rolling Stone
TTITLE3=Don't Think Twice It's All Right
TTITLE4=Quinn The Eskimo (The Mighty Quinn)
TTITLE5=Blowing In The Wind
TTITLE6=Positively 4th Street
TTITLE7=You Ain't Goin' Nowhere
TTITLE8=When I Paint My Masterpiece
TTITLE9=Lay Lady Lay
TTITLE10=Just Like A Woman
TTITLE11=Things Have Changed
TTITLE12=Forever Young
TTITLE13=Knockin' On Heaven's Door
EXTD=
EXTT0=
EXTT1=
EXTT2=
EXTT3=
EXTT4=
EXTT5=
EXTT6=
EXTT7=
EXTT8=
EXTT9=
EXTT10=
EXTT11=
EXTT12=
EXTT13=
PLAYORDER=
